<svg width="32" height="32" viewBox="0 0 32 32" fill="none" xmlns="http://www.w3.org/2000/svg">
<path d="M16.5 26.0746C23.9558 26.0746 30 23.3272 30 19.9382C30 16.5492 23.9558 13.8018 16.5 13.8018C9.04416 13.8018 3 16.5492 3 19.9382C3 23.3272 9.04416 26.0746 16.5 26.0746Z" fill="#E8D5B7" stroke="#C9A96E" stroke-width="1.22727"/>
<path d="M16.5 23.0064C22.6002 23.0064 27.5455 21.0833 27.5455 18.7109C27.5455 16.3386 22.6002 14.4155 16.5 14.4155C10.3998 14.4155 5.45455 16.3386 5.45455 18.7109C5.45455 21.0833 10.3998 23.0064 16.5 23.0064Z" fill="#F5E6CC"/>
<path d="M12.2741 21.1177C14.2877 20.8347 15.6142 18.4288 15.2369 15.744C14.8596 13.0592 12.9213 11.1121 10.9077 11.3951C8.89407 11.6781 7.56759 14.084 7.94492 16.7688C8.32225 19.4536 10.2605 21.4007 12.2741 21.1177Z" fill="#FECDD3" stroke="#FDA4AF" stroke-width="0.920455"/>
<path d="M17.1136 20.5518C19.3165 20.5518 21.1023 18.0792 21.1023 15.0291C21.1023 11.979 19.3165 9.50639 17.1136 9.50639C14.9108 9.50639 13.125 11.979 13.125 15.0291C13.125 18.0792 14.9108 20.5518 17.1136 20.5518Z" fill="#DDD6FE" stroke="#C4B5FD" stroke-width="0.920455"/>
<path d="M21.3395 21.1177C23.3531 21.4007 25.2914 19.4536 25.6687 16.7688C26.046 14.084 24.7196 11.6781 22.7059 11.3951C20.6923 11.1121 18.7541 13.0592 18.3767 15.744C17.9994 18.4288 19.3259 20.8347 21.3395 21.1177Z" fill="#BAE6FD" stroke="#7DD3FC" stroke-width="0.920455"/>
<path d="M16.5 6.43821C15.5795 4.90412 13.7386 4.5973 12.8182 5.51776C11.8977 6.43821 12.2045 8.27912 13.4318 9.50639L16.5 12.2678L19.5682 9.50639C20.7955 8.27912 21.1023 6.43821 20.1818 5.51776C19.2614 4.5973 17.4205 4.90412 16.5 6.43821Z" fill="#F43F5E"/>
</svg>
